<svg width="11" height="7" viewBox="0 0 11 7" fill="none" xmlns="http://www.w3.org/2000/svg">
<path fill-rule="evenodd" clip-rule="evenodd" d="M9.78561 5.78952C9.64235 5.92735 9.45023 6.00266 9.25147 5.99891C9.05271 5.99516 8.86357 5.91265 8.72561 5.76952L5.01561 1.83152L1.30561 5.76952C1.23817 5.84386 1.1565 5.90392 1.06543 5.94612C0.974356 5.98832 0.87574 6.01181 0.775424 6.0152C0.675108 6.01859 0.575131 6.00181 0.48142 5.96585C0.387708 5.92989 0.302167 5.87549 0.229866 5.80587C0.157565 5.73624 0.0999746 5.65282 0.0605077 5.56053C0.0210409 5.46824 0.000499669 5.36897 0.000102932 5.26859C-0.000293806 5.16822 0.0194606 5.06879 0.058196 4.97619C0.0969314 4.88359 0.15386 4.79971 0.225608 4.72952L4.47561 0.229518C4.54557 0.156932 4.62945 0.099196 4.72223 0.0597606C4.81501 0.0203252 4.91479 -5.07788e-07 5.01561 -5.16602e-07C5.11642 -5.25415e-07 5.2162 0.0203251 5.30898 0.0597605C5.40177 0.0991959 5.48564 0.156932 5.55561 0.229518L9.80561 4.72952C9.94344 4.87278 10.0188 5.0649 10.015 5.26366C10.0113 5.46242 9.92874 5.65156 9.78561 5.78952Z" fill="#6C727F"/>
</svg>
