<svg width="16" height="16" viewBox="0 0 16 16" fill="none" xmlns="http://www.w3.org/2000/svg">
<path fill-rule="evenodd" clip-rule="evenodd" d="M4.25985 3.42857V4H2.60836C1.81046 4 1.14222 4.55162 1.05827 5.27924L0.00853801 14.4221C-0.0142933 14.6212 0.00878949 14.8225 0.0762893 15.0129C0.143789 15.2033 0.254198 15.3786 0.400356 15.5274C0.546513 15.6762 0.725155 15.7951 0.924694 15.8766C1.12423 15.958 1.34021 16 1.55862 16H14.4414C14.6598 16 14.8758 15.958 15.0753 15.8766C15.2748 15.7951 15.4535 15.6762 15.5996 15.5274C15.7458 15.3786 15.8562 15.2033 15.9237 15.0129C15.9912 14.8225 16.0143 14.6212 15.9915 14.4221L14.9417 5.27924C14.9015 4.92811 14.7208 4.60309 14.4346 4.36686C14.1483 4.13064 13.7768 3.99995 13.3916 4H11.7402V3.42857C11.7402 2.51926 11.3461 1.64719 10.6447 1.00421C9.94327 0.361223 8.99195 0 8 0C7.00805 0 6.05673 0.361223 5.35531 1.00421C4.6539 1.64719 4.25985 2.51926 4.25985 3.42857ZM8 1.14286C7.3387 1.14286 6.70448 1.38367 6.23687 1.81233C5.76926 2.24098 5.50656 2.82236 5.50656 3.42857V4H10.4934V3.42857C10.4934 2.82236 10.2307 2.24098 9.76313 1.81233C9.29552 1.38367 8.6613 1.14286 8 1.14286ZM5.50656 7.42857C5.50656 8.03478 5.76926 8.61616 6.23687 9.04482C6.70448 9.47347 7.3387 9.71429 8 9.71429C8.6613 9.71429 9.29552 9.47347 9.76313 9.04482C10.2307 8.61616 10.4934 8.03478 10.4934 7.42857V6.85714C10.4934 6.70559 10.5591 6.56025 10.676 6.45308C10.7929 6.34592 10.9515 6.28571 11.1168 6.28571C11.2821 6.28571 11.4407 6.34592 11.5576 6.45308C11.6745 6.56025 11.7402 6.70559 11.7402 6.85714V7.42857C11.7402 8.33788 11.3461 9.20996 10.6447 9.85294C9.94327 10.4959 8.99195 10.8571 8 10.8571C7.00805 10.8571 6.05673 10.4959 5.35531 9.85294C4.6539 9.20996 4.25985 8.33788 4.25985 7.42857V6.85714C4.25985 6.70559 4.32552 6.56025 4.44242 6.45308C4.55933 6.34592 4.71788 6.28571 4.88321 6.28571C5.04853 6.28571 5.20708 6.34592 5.32399 6.45308C5.44089 6.56025 5.50656 6.70559 5.50656 6.85714V7.42857Z" fill="#6C727F
"/>
</svg>
