<svg width="22" height="22" viewBox="0 0 22 22" fill="none" xmlns="http://www.w3.org/2000/svg">
<path d="M1 2.36364C1 1.61091 1.61091 1 2.36364 1H7.81818C8.57091 1 9.18182 1.61091 9.18182 2.36364V7.81818C9.18182 8.57091 8.57091 9.18182 7.81818 9.18182H2.36364C2.00198 9.18182 1.65513 9.03815 1.3994 8.78242C1.14367 8.52669 1 8.17984 1 7.81818V2.36364ZM1 14.1818C1 13.4291 1.61091 12.8182 2.36364 12.8182H7.81818C8.57091 12.8182 9.18182 13.4291 9.18182 14.1818V19.6364C9.18182 20.3891 8.57091 21 7.81818 21H2.36364C2.00198 21 1.65513 20.8563 1.3994 20.6006C1.14367 20.3449 1 19.998 1 19.6364V14.1818ZM12.8182 2.36364C12.8182 1.61091 13.4291 1 14.1818 1H19.6364C20.3891 1 21 1.61091 21 2.36364V7.81818C21 8.57091 20.3891 9.18182 19.6364 9.18182H14.1818C13.8202 9.18182 13.4733 9.03815 13.2176 8.78242C12.9619 8.52669 12.8182 8.17984 12.8182 7.81818V2.36364Z" stroke="#2A4DD0" stroke-width="1.5" stroke-linecap="round" stroke-linejoin="round"/>
<path d="M4.63623 4.63634H5.54532V5.54544H4.63623V4.63634ZM4.63623 16.4545H5.54532V17.3636H4.63623V16.4545ZM16.4544 4.63634H17.3635V5.54544H16.4544V4.63634ZM12.818 12.8182H13.7271V13.7273H12.818V12.8182ZM12.818 20.0909H13.7271V21H12.818V20.0909ZM20.0908 12.8182H20.9999V13.7273H20.0908V12.8182ZM20.0908 20.0909H20.9999V21H20.0908V20.0909ZM16.4544 16.4545H17.3635V17.3636H16.4544V16.4545Z" stroke="#2A4DD0" stroke-width="1.5" stroke-linecap="round" stroke-linejoin="round"/>
</svg>
